<svg xmlns="http://www.w3.org/2000/svg" width="32" height="32" viewBox="0 0 32 32" fill="none">
<g id="Alien">
<path id="Vector" d="M16.3796 1.55005C13.1982 1.55369 10.148 2.81914 7.89838 5.06879C5.64873 7.31844 4.38328 10.3686 4.37964 13.55C4.37964 16.55 5.94964 20.4325 8.58089 23.925C11.2284 27.4438 14.1434 29.55 16.3796 29.55C18.6159 29.55 21.5309 27.4488 24.1784 23.925C26.8096 20.425 28.3796 16.55 28.3796 13.55C28.376 10.3686 27.1105 7.31844 24.8609 5.06879C22.6113 2.81914 19.5611 1.55369 16.3796 1.55005ZM22.5809 22.7275C20.4096 25.6113 17.9184 27.55 16.3796 27.55C14.8409 27.55 12.3496 25.6113 10.1784 22.7275C7.83589 19.6125 6.37964 16.0963 6.37964 13.55C6.37964 10.8979 7.43321 8.35434 9.30857 6.47898C11.1839 4.60362 13.7275 3.55005 16.3796 3.55005C19.0318 3.55005 21.5753 4.60362 23.4507 6.47898C25.3261 8.35434 26.3796 10.8979 26.3796 13.55C26.3796 16.0963 24.9234 19.6125 22.5809 22.7275ZM15.3796 16.55C15.3796 15.224 14.8529 13.9522 13.9152 13.0145C12.9775 12.0768 11.7057 11.55 10.3796 11.55C9.84921 11.55 9.3405 11.7608 8.96543 12.1358C8.59035 12.5109 8.37964 13.0196 8.37964 13.55C8.37964 14.8761 8.90642 16.1479 9.8441 17.0856C10.7818 18.0233 12.0536 18.55 13.3796 18.55C13.9101 18.55 14.4188 18.3393 14.7939 17.9643C15.1689 17.5892 15.3796 17.0805 15.3796 16.55ZM10.3796 13.55C11.1753 13.55 11.9384 13.8661 12.501 14.4287C13.0636 14.9913 13.3796 15.7544 13.3796 16.55C12.584 16.55 11.8209 16.234 11.2583 15.6714C10.6957 15.1088 10.3796 14.3457 10.3796 13.55ZM22.3796 11.55C21.0536 11.55 19.7818 12.0768 18.8441 13.0145C17.9064 13.9522 17.3796 15.224 17.3796 16.55C17.3796 17.0805 17.5904 17.5892 17.9654 17.9643C18.3405 18.3393 18.8492 18.55 19.3796 18.55C20.0362 18.55 20.6864 18.4207 21.2931 18.1694C21.8997 17.9182 22.4509 17.5499 22.9152 17.0856C23.3795 16.6213 23.7478 16.0701 23.999 15.4635C24.2503 14.8568 24.3796 14.2067 24.3796 13.55C24.3796 13.0196 24.1689 12.5109 23.7939 12.1358C23.4188 11.7608 22.9101 11.55 22.3796 11.55ZM19.3796 16.55C19.3796 15.7544 19.6957 14.9913 20.2583 14.4287C20.8209 13.8661 21.584 13.55 22.3796 13.55C22.3796 14.3457 22.0636 15.1088 21.501 15.6714C20.9384 16.234 20.1753 16.55 19.3796 16.55ZM19.3796 22.55C19.3796 22.8153 19.2743 23.0696 19.0867 23.2572C18.8992 23.4447 18.6449 23.55 18.3796 23.55H14.3796C14.1144 23.55 13.8601 23.4447 13.6725 23.2572C13.485 23.0696 13.3796 22.8153 13.3796 22.55C13.3796 22.2848 13.485 22.0305 13.6725 21.8429C13.8601 21.6554 14.1144 21.55 14.3796 21.55H18.3796C18.6449 21.55 18.8992 21.6554 19.0867 21.8429C19.2743 22.0305 19.3796 22.2848 19.3796 22.55Z" fill="#ffffff"/>
</g>
</svg>