<svg width="18" height="18" viewBox="0 0 18 18" fill="none" xmlns="http://www.w3.org/2000/svg">
<g id="FolderSimple">
<path id="Vector" d="M15.1875 5.0625H9.18773L7.23656 3.6C7.04221 3.45424 6.8059 3.3753 6.56297 3.375H2.8125C2.51413 3.375 2.22798 3.49353 2.017 3.7045C1.80603 3.91548 1.6875 4.20163 1.6875 4.5V14.0625C1.6875 14.3609 1.80603 14.647 2.017 14.858C2.22798 15.069 2.51413 15.1875 2.8125 15.1875H15.2501C15.5317 15.1871 15.8018 15.0751 16.0009 14.8759C16.2001 14.6768 16.3121 14.4067 16.3125 14.1251V6.1875C16.3125 5.88913 16.194 5.60298 15.983 5.392C15.772 5.18103 15.4859 5.0625 15.1875 5.0625Z" fill="white"/>
</g>
</svg>
