<svg width="16" height="16" viewBox="0 0 16 16" fill="none" xmlns="http://www.w3.org/2000/svg">
<g id="Frame">
<path id="Vector" d="M10.9999 9.99999C10.6664 9.99988 10.3362 10.0667 10.0289 10.1965C9.72169 10.3263 9.44361 10.5164 9.21116 10.7556L6.32991 8.90374C6.55655 8.32255 6.55655 7.67742 6.32991 7.09624L9.21116 5.24436C9.64394 5.68769 10.2259 5.95452 10.8443 5.99313C11.4626 6.03174 12.0733 5.83937 12.5578 5.45333C13.0424 5.06729 13.3664 4.51506 13.4669 3.90373C13.5675 3.2924 13.4374 2.66551 13.102 2.14459C12.7666 1.62368 12.2498 1.24587 11.6516 1.08439C11.0535 0.92292 10.4167 0.989294 9.86474 1.27065C9.31276 1.552 8.88492 2.02829 8.66416 2.60717C8.4434 3.18605 8.44544 3.82628 8.66991 4.40374L5.78866 6.25561C5.4417 5.89941 4.9964 5.65477 4.50968 5.55295C4.02296 5.45114 3.51694 5.49678 3.0563 5.68405C2.59565 5.87132 2.20132 6.1917 1.9237 6.60424C1.64609 7.01678 1.4978 7.50274 1.4978 7.99999C1.4978 8.49724 1.64609 8.9832 1.9237 9.39574C2.20132 9.80828 2.59565 10.1287 3.0563 10.3159C3.51694 10.5032 4.02296 10.5488 4.50968 10.447C4.9964 10.3452 5.4417 10.1006 5.78866 9.74436L8.66991 11.5962C8.47689 12.0941 8.44833 12.6406 8.5884 13.1559C8.72848 13.6711 9.02984 14.1279 9.44835 14.4595C9.86685 14.7911 10.3805 14.98 10.9141 14.9985C11.4478 15.017 11.9733 14.8642 12.4138 14.5624C12.8543 14.2606 13.1866 13.8258 13.362 13.3215C13.5375 12.8172 13.5469 12.27 13.3888 11.76C13.2308 11.25 12.9136 10.8039 12.4837 10.4872C12.0538 10.1705 11.5338 9.99979 10.9999 9.99999ZM10.9999 1.99999C11.2966 1.99999 11.5866 2.08796 11.8333 2.25278C12.0799 2.41761 12.2722 2.65187 12.3857 2.92596C12.4993 3.20005 12.529 3.50165 12.4711 3.79262C12.4132 4.08359 12.2703 4.35087 12.0606 4.56065C11.8508 4.77043 11.5835 4.91329 11.2925 4.97117C11.0016 5.02904 10.7 4.99934 10.4259 4.88581C10.1518 4.77228 9.91752 4.58002 9.7527 4.33334C9.58788 4.08667 9.49991 3.79666 9.49991 3.49999C9.49991 3.10216 9.65794 2.72063 9.93925 2.43933C10.2206 2.15802 10.6021 1.99999 10.9999 1.99999ZM3.99991 9.49999C3.70323 9.49999 3.41322 9.41201 3.16655 9.24719C2.91988 9.08237 2.72762 8.8481 2.61409 8.57401C2.50056 8.29992 2.47085 7.99832 2.52873 7.70735C2.58661 7.41638 2.72947 7.14911 2.93925 6.93933C3.14902 6.72955 3.4163 6.58669 3.70727 6.52881C3.99824 6.47093 4.29984 6.50064 4.57393 6.61417C4.84802 6.7277 5.08229 6.91996 5.24711 7.16663C5.41193 7.41331 5.49991 7.70332 5.49991 7.99999C5.49991 8.39781 5.34187 8.77934 5.06057 9.06065C4.77926 9.34195 4.39773 9.49999 3.99991 9.49999ZM10.9999 14C10.7032 14 10.4132 13.912 10.1666 13.7472C9.91988 13.5824 9.72762 13.3481 9.61409 13.074C9.50056 12.7999 9.47085 12.4983 9.52873 12.2074C9.58661 11.9164 9.72947 11.6491 9.93925 11.4393C10.149 11.2295 10.4163 11.0867 10.7073 11.0288C10.9982 10.9709 11.2998 11.0006 11.5739 11.1142C11.848 11.2277 12.0823 11.42 12.2471 11.6666C12.4119 11.9133 12.4999 12.2033 12.4999 12.5C12.4999 12.8978 12.3419 13.2793 12.0606 13.5606C11.7793 13.842 11.3977 14 10.9999 14Z" fill="#252C32"/>
</g>
</svg>
