<svg xmlns="http://www.w3.org/2000/svg" width="32" height="32" viewBox="0 0 32 32" fill="none">
<g id="Users" clip-path="url(#clip0_14_1653)">
<path id="Vector" d="M15.0358 19.29C16.3761 18.3978 17.3936 17.0979 17.938 15.5826C18.4823 14.0673 18.5246 12.4171 18.0585 10.8759C17.5924 9.33476 16.6427 7.9845 15.3499 7.02483C14.057 6.06515 12.4897 5.547 10.8796 5.547C9.26948 5.547 7.70213 6.06515 6.40929 7.02483C5.11646 7.9845 4.16678 9.33476 3.70069 10.8759C3.23461 12.4171 3.27686 14.0673 3.8212 15.5826C4.36554 17.0979 5.38308 18.3978 6.72333 19.29C4.29894 20.1836 2.22846 21.8371 0.820829 24.0038C0.746848 24.1137 0.695462 24.2373 0.669655 24.3673C0.643849 24.4973 0.644138 24.6311 0.670505 24.761C0.696873 24.8909 0.748792 25.0142 0.823247 25.1238C0.897701 25.2335 0.993205 25.3272 1.10421 25.3996C1.21521 25.472 1.33949 25.5216 1.46984 25.5456C1.60018 25.5695 1.73399 25.5673 1.86347 25.5391C1.99296 25.5109 2.11554 25.4572 2.2241 25.3812C2.33266 25.3052 2.42502 25.2083 2.49583 25.0963C3.40382 23.6998 4.64627 22.5522 6.11037 21.7578C7.57448 20.9633 9.21383 20.5472 10.8796 20.5472C12.5453 20.5472 14.1847 20.9633 15.6488 21.7578C17.1129 22.5522 18.3553 23.6998 19.2633 25.0963C19.41 25.3143 19.6366 25.4658 19.8941 25.5181C20.1515 25.5703 20.4193 25.5192 20.6393 25.3756C20.8594 25.2321 21.0141 25.0077 21.0701 24.751C21.126 24.4943 21.0787 24.2259 20.9383 24.0038C19.5307 21.8371 17.4602 20.1836 15.0358 19.29ZM5.37958 13.05C5.37958 11.9622 5.70215 10.8989 6.3065 9.9944C6.91084 9.08993 7.76983 8.38499 8.77482 7.9687C9.77981 7.55242 10.8857 7.4435 11.9526 7.65572C13.0195 7.86794 13.9995 8.39176 14.7687 9.16095C15.5379 9.93014 16.0617 10.9101 16.2739 11.977C16.4861 13.0439 16.3772 14.1498 15.9609 15.1548C15.5446 16.1598 14.8397 17.0188 13.9352 17.6231C13.0307 18.2275 11.9674 18.55 10.8796 18.55C9.4214 18.5484 8.02341 17.9684 6.99232 16.9373C5.96123 15.9062 5.38123 14.5082 5.37958 13.05ZM31.6471 25.3875C31.425 25.5324 31.1544 25.5831 30.8949 25.5285C30.6354 25.4738 30.4082 25.3184 30.2633 25.0963C29.3564 23.6989 28.1141 22.5509 26.6497 21.7568C25.1853 20.9627 23.5454 20.5478 21.8796 20.55C21.6144 20.55 21.36 20.4447 21.1725 20.2571C20.9849 20.0696 20.8796 19.8153 20.8796 19.55C20.8796 19.2848 20.9849 19.0305 21.1725 18.8429C21.36 18.6554 21.6144 18.55 21.8796 18.55C22.6895 18.5493 23.4893 18.3696 24.2218 18.0239C24.9543 17.6782 25.6014 17.175 26.1169 16.5503C26.6323 15.9255 27.0034 15.1946 27.2037 14.4098C27.4039 13.6249 27.4283 12.8056 27.2752 12.0102C27.1221 11.2149 26.7952 10.4632 26.3178 9.80879C25.8405 9.15442 25.2246 8.61355 24.514 8.22483C23.8034 7.83611 23.0157 7.60914 22.2072 7.56012C21.3987 7.51111 20.5894 7.64126 19.8371 7.94129C19.7144 7.99432 19.5824 8.02222 19.4487 8.02335C19.3151 8.02448 19.1826 7.99881 19.059 7.94787C18.9355 7.89692 18.8234 7.82172 18.7294 7.72673C18.6354 7.63173 18.5614 7.51886 18.5118 7.39478C18.4622 7.2707 18.4379 7.13793 18.4405 7.00431C18.443 6.8707 18.4723 6.73895 18.5266 6.61686C18.581 6.49476 18.6592 6.38479 18.7568 6.29345C18.8543 6.2021 18.9692 6.13124 19.0946 6.08504C20.8164 5.39835 22.7315 5.37364 24.4705 6.01567C26.2095 6.6577 27.6491 7.92099 28.5116 9.56181C29.3741 11.2026 29.5984 13.1047 29.1412 14.9012C28.684 16.6976 27.5778 18.2611 26.0358 19.29C28.4602 20.1836 30.5307 21.8371 31.9383 24.0038C32.0832 24.2259 32.1339 24.4965 32.0792 24.756C32.0246 25.0155 31.8692 25.2426 31.6471 25.3875Z" fill="#ffffff"/>
</g>
<defs fill="#ffffff">
<clipPath id="clip0_14_1653" fill="#ffffff">
<rect width="32" height="32" fill="white"/>
</clipPath>
</defs>
</svg>